<svg xmlns="http://www.w3.org/2000/svg" xmlns:xlink="http://www.w3.org/1999/xlink" width="500" zoomAndPan="magnify" viewBox="0 0 375 374.999991" height="500" preserveAspectRatio="xMidYMid meet" version="1.0"><defs><clipPath id="4ce05e0f7b"><path d="M 8.25 0 L 366.75 0 C 368.9375 0 371.035156 0.871094 372.582031 2.417969 C 374.128906 3.964844 375 6.0625 375 8.25 L 375 366.75 C 375 368.9375 374.128906 371.035156 372.582031 372.582031 C 371.035156 374.128906 368.9375 375 366.75 375 L 8.25 375 C 3.695312 375 0 371.304688 0 366.75 L 0 8.25 C 0 3.695312 3.695312 0 8.25 0 Z M 8.25 0 " clip-rule="nonzero"/></clipPath><clipPath id="8ed7e5e468"><path d="M 5 82.304688 L 370 82.304688 L 370 293 L 5 293 Z M 5 82.304688 " clip-rule="nonzero"/></clipPath><clipPath id="ad546ceb56"><path d="M 4.550781 82.304688 L 370.550781 82.304688 L 370.550781 293 L 4.550781 293 Z M 4.550781 82.304688 " clip-rule="nonzero"/></clipPath></defs><g clip-path="url(#4ce05e0f7b)"><rect x="-37.5" width="450" fill="#000000" y="-37.499999" height="449.999989" fill-opacity="1"/></g><g clip-path="url(#8ed7e5e468)"><path fill="#f2b33d" d="M 327.039062 145.910156 L 327.039062 161.957031 L 318.304688 161.957031 L 318.304688 145.910156 L 271.511719 145.910156 L 231.207031 106.929688 L 173.972656 106.929688 L 173.972656 98.066406 L 220.242188 98.066406 C 224.578125 98.066406 228.097656 94.660156 228.097656 90.464844 C 228.097656 86.269531 224.578125 82.867188 220.242188 82.867188 L 111.988281 82.867188 C 107.648438 82.867188 104.132812 86.269531 104.132812 90.464844 C 104.132812 94.660156 107.648438 98.066406 111.988281 98.066406 L 158.257812 98.066406 L 158.257812 106.929688 L 107.957031 106.929688 L 66.234375 145.597656 L 29.632812 146 L 29.632812 194.601562 L 20.902344 194.601562 L 20.902344 135.496094 C 20.902344 131.300781 17.386719 127.898438 13.046875 127.898438 C 8.710938 127.898438 5.191406 131.300781 5.191406 135.496094 L 5.191406 268.90625 C 5.191406 273.101562 8.710938 276.507812 13.046875 276.507812 C 17.386719 276.507812 20.902344 273.101562 20.902344 268.90625 L 20.902344 209.800781 L 29.632812 209.800781 L 29.632812 262.714844 L 66.832031 262.714844 L 97.242188 292.125 L 286.722656 292.125 L 318.441406 251.453125 L 329.660156 251.453125 L 329.660156 279.597656 L 369.816406 279.597656 L 369.816406 145.910156 Z M 354.101562 264.40625 L 345.371094 264.40625 L 345.371094 236.261719 L 310.609375 236.261719 L 278.890625 276.933594 L 103.746094 276.933594 L 73.335938 247.519531 L 45.347656 247.519531 L 45.347656 161.027344 L 72.621094 160.726562 L 114.269531 122.132812 L 224.695312 122.132812 L 265.003906 161.113281 L 302.59375 161.113281 L 302.59375 177.15625 L 342.753906 177.15625 L 342.753906 161.113281 L 354.101562 161.113281 Z M 354.101562 264.40625 " fill-opacity="1" fill-rule="nonzero"/></g><g clip-path="url(#ad546ceb56)"><path fill="#f2b33d" d="M 287.011719 292.691406 L 96.996094 292.691406 L 96.828125 292.527344 L 66.585938 263.277344 L 29.050781 263.277344 L 29.050781 210.367188 L 21.484375 210.367188 L 21.484375 268.90625 C 21.484375 273.410156 17.699219 277.070312 13.042969 277.070312 C 8.394531 277.070312 4.605469 273.40625 4.605469 268.90625 L 4.605469 135.496094 C 4.605469 130.996094 8.394531 127.335938 13.046875 127.335938 C 17.703125 127.335938 21.488281 130.996094 21.488281 135.496094 L 21.488281 194.039062 L 29.054688 194.039062 L 29.054688 145.441406 L 66.003906 145.03125 L 107.730469 106.367188 L 157.679688 106.367188 L 157.679688 98.628906 L 111.988281 98.628906 C 107.335938 98.628906 103.546875 94.96875 103.546875 90.464844 C 103.546875 85.964844 107.335938 82.304688 111.988281 82.304688 L 220.242188 82.304688 C 224.894531 82.304688 228.679688 85.964844 228.679688 90.464844 C 228.679688 94.96875 224.894531 98.628906 220.242188 98.628906 L 174.554688 98.628906 L 174.554688 106.367188 L 231.445312 106.367188 L 271.75 145.347656 L 318.890625 145.347656 L 318.890625 161.390625 L 326.457031 161.390625 L 326.457031 145.347656 L 370.398438 145.347656 L 370.398438 280.164062 L 329.074219 280.164062 L 329.074219 252.019531 L 318.726562 252.019531 Z M 97.480469 291.5625 L 286.433594 291.5625 L 318.152344 250.890625 L 330.238281 250.890625 L 330.238281 279.035156 L 369.234375 279.035156 L 369.234375 146.476562 L 327.617188 146.476562 L 327.617188 162.519531 L 317.726562 162.519531 L 317.726562 146.476562 L 271.269531 146.476562 L 230.960938 107.496094 L 173.386719 107.496094 L 173.386719 97.5 L 220.242188 97.5 C 224.25 97.5 227.515625 94.34375 227.515625 90.464844 C 227.515625 86.585938 224.25 83.429688 220.242188 83.429688 L 111.988281 83.429688 C 107.976562 83.429688 104.714844 86.585938 104.714844 90.464844 C 104.714844 94.34375 107.976562 97.5 111.988281 97.5 L 158.839844 97.5 L 158.839844 107.496094 L 108.191406 107.496094 L 66.472656 146.15625 L 30.21875 146.554688 L 30.21875 195.167969 L 20.324219 195.167969 L 20.324219 135.496094 C 20.324219 131.617188 17.058594 128.460938 13.046875 128.460938 C 9.039062 128.460938 5.773438 131.617188 5.773438 135.496094 L 5.773438 268.90625 C 5.773438 272.789062 9.039062 275.941406 13.046875 275.941406 C 17.058594 275.941406 20.324219 272.789062 20.324219 268.90625 L 20.324219 209.238281 L 30.214844 209.238281 L 30.214844 262.148438 L 67.070312 262.148438 L 67.238281 262.3125 Z M 279.183594 277.492188 L 103.503906 277.492188 L 103.335938 277.328125 L 73.097656 248.078125 L 44.765625 248.078125 L 44.765625 160.464844 L 72.386719 160.164062 L 114.039062 121.566406 L 224.941406 121.566406 L 265.246094 160.546875 L 303.179688 160.546875 L 303.179688 176.589844 L 342.171875 176.589844 L 342.171875 160.546875 L 354.6875 160.546875 L 354.6875 264.964844 L 344.792969 264.964844 L 344.792969 236.820312 L 310.90625 236.820312 Z M 103.988281 276.363281 L 278.601562 276.363281 L 310.320312 235.691406 L 345.949219 235.691406 L 345.949219 263.835938 L 353.515625 263.835938 L 353.515625 161.671875 L 343.328125 161.671875 L 343.328125 177.71875 L 302.003906 177.71875 L 302.003906 161.671875 L 264.753906 161.671875 L 224.449219 122.691406 L 114.503906 122.691406 L 72.855469 161.285156 L 45.925781 161.582031 L 45.925781 246.957031 L 73.574219 246.957031 L 73.746094 247.121094 Z M 103.988281 276.363281 " fill-opacity="1" fill-rule="nonzero"/></g><path fill="#f2b33d" d="M 91.578125 216.316406 C 91.148438 218.199219 90.3125 219.824219 89.019531 221.277344 C 87.441406 223.042969 85.609375 223.90625 83.414062 223.90625 C 80.644531 223.90625 78.453125 222.597656 76.71875 219.910156 C 74.835938 216.988281 73.878906 212.484375 73.878906 206.527344 C 73.878906 200.648438 74.773438 196.15625 76.546875 193.167969 C 78.171875 190.429688 80.257812 189.15625 83.109375 189.15625 C 87.011719 189.15625 89.671875 191.707031 91.246094 196.957031 L 91.632812 198.25 L 104.332031 198.25 L 103.894531 196.109375 C 102.785156 190.695312 100.535156 186.378906 97.199219 183.277344 C 93.429688 179.769531 88.664062 177.992188 83.035156 177.992188 C 75.859375 177.992188 70.140625 180.753906 66.03125 186.207031 C 62.054688 191.484375 60.039062 198.378906 60.039062 206.683594 C 60.039062 211.828125 60.886719 216.609375 62.558594 220.898438 C 64.269531 225.28125 66.75 228.8125 69.941406 231.394531 C 73.230469 234.058594 77.519531 235.414062 82.695312 235.414062 C 88.820312 235.414062 93.855469 233.527344 97.667969 229.8125 C 101.171875 226.402344 103.332031 222.070312 104.09375 216.953125 L 104.398438 214.90625 L 91.902344 214.90625 Z M 91.578125 216.316406 " fill-opacity="1" fill-rule="nonzero"/><path fill="#f2b33d" d="M 82.691406 235.976562 C 77.375 235.976562 72.957031 234.582031 69.5625 231.828125 C 66.292969 229.183594 63.75 225.574219 62.007812 221.09375 C 60.3125 216.746094 59.449219 211.894531 59.449219 206.683594 C 59.449219 198.25 61.503906 191.25 65.554688 185.875 C 69.78125 180.273438 75.664062 177.425781 83.03125 177.425781 C 88.816406 177.425781 93.71875 179.257812 97.597656 182.867188 C 101.019531 186.050781 103.328125 190.46875 104.457031 196 L 105.03125 198.816406 L 91.191406 198.816406 L 90.679688 197.117188 C 89.191406 192.136719 86.710938 189.71875 83.105469 189.71875 C 80.445312 189.71875 78.578125 190.871094 77.046875 193.449219 C 75.328125 196.355469 74.457031 200.75 74.457031 206.527344 C 74.457031 212.375 75.382812 216.78125 77.207031 219.609375 C 78.828125 222.121094 80.855469 223.34375 83.410156 223.34375 C 85.425781 223.34375 87.117188 222.546875 88.574219 220.910156 C 89.800781 219.53125 90.597656 217.984375 91.003906 216.191406 L 91.425781 214.34375 L 105.0625 214.34375 L 104.664062 217.035156 C 103.882812 222.277344 101.667969 226.707031 98.078125 230.214844 C 94.15625 234.039062 88.980469 235.976562 82.691406 235.976562 Z M 83.035156 178.550781 C 76.058594 178.550781 70.496094 181.238281 66.5 186.539062 C 62.597656 191.71875 60.617188 198.496094 60.617188 206.683594 C 60.617188 211.757812 61.449219 216.476562 63.097656 220.699219 C 64.769531 224.992188 67.195312 228.445312 70.3125 230.964844 C 73.492188 233.546875 77.65625 234.851562 82.695312 234.851562 C 88.660156 234.851562 93.558594 233.023438 97.253906 229.417969 C 100.664062 226.089844 102.769531 221.871094 103.515625 216.875 L 103.722656 215.46875 L 92.367188 215.46875 L 92.148438 216.4375 C 91.699219 218.417969 90.824219 220.125 89.464844 221.644531 C 87.773438 223.546875 85.796875 224.46875 83.417969 224.46875 C 80.429688 224.46875 78.078125 223.078125 76.226562 220.207031 C 74.28125 217.195312 73.296875 212.589844 73.296875 206.527344 C 73.296875 200.554688 74.21875 195.960938 76.042969 192.890625 C 77.785156 189.957031 80.027344 188.589844 83.109375 188.589844 C 87.304688 188.589844 90.144531 191.273438 91.804688 196.800781 L 92.070312 197.6875 L 103.621094 197.6875 L 103.320312 196.21875 C 102.238281 190.917969 100.042969 186.703125 96.792969 183.679688 C 93.136719 180.277344 88.503906 178.550781 83.035156 178.550781 Z M 83.035156 178.550781 " fill-opacity="1" fill-rule="nonzero"/><path fill="#f2b33d" d="M 136.898438 200.128906 L 120.15625 200.128906 L 120.15625 178.007812 L 106.789062 178.007812 L 106.789062 235.414062 L 120.15625 235.414062 L 120.15625 212.03125 L 136.898438 212.03125 L 136.898438 235.414062 L 150.261719 235.414062 L 150.261719 178.007812 L 136.898438 178.007812 Z M 136.898438 200.128906 " fill-opacity="1" fill-rule="nonzero"/><path fill="#f2b33d" d="M 150.847656 235.976562 L 136.316406 235.976562 L 136.316406 212.59375 L 120.734375 212.59375 L 120.734375 235.976562 L 106.207031 235.976562 L 106.207031 177.445312 L 120.734375 177.445312 L 120.734375 199.5625 L 136.316406 199.5625 L 136.316406 177.445312 L 150.847656 177.445312 Z M 137.480469 234.851562 L 149.679688 234.851562 L 149.679688 178.570312 L 137.480469 178.570312 L 137.480469 200.691406 L 119.570312 200.691406 L 119.570312 178.570312 L 107.367188 178.570312 L 107.367188 234.855469 L 119.570312 234.855469 L 119.570312 211.472656 L 137.480469 211.472656 Z M 137.480469 234.851562 " fill-opacity="1" fill-rule="nonzero"/><path fill="#f2b33d" d="M 170.320312 211.992188 L 190.265625 211.992188 L 190.265625 200.597656 L 170.320312 200.597656 L 170.320312 189.601562 L 195.132812 189.601562 L 195.132812 178.007812 L 156.957031 178.007812 L 156.957031 235.414062 L 195.488281 235.414062 L 195.488281 223.46875 L 170.320312 223.46875 Z M 170.320312 211.992188 " fill-opacity="1" fill-rule="nonzero"/><path fill="#f2b33d" d="M 196.066406 235.976562 L 156.375 235.976562 L 156.375 177.445312 L 195.714844 177.445312 L 195.714844 190.160156 L 170.90625 190.160156 L 170.90625 200.035156 L 190.84375 200.035156 L 190.84375 212.554688 L 170.90625 212.554688 L 170.90625 222.898438 L 196.066406 222.898438 Z M 157.539062 234.851562 L 194.902344 234.851562 L 194.902344 224.027344 L 169.738281 224.027344 L 169.738281 211.429688 L 189.679688 211.429688 L 189.679688 201.164062 L 169.738281 201.164062 L 169.738281 189.035156 L 194.546875 189.035156 L 194.546875 178.570312 L 157.539062 178.570312 Z M 157.539062 234.851562 " fill-opacity="1" fill-rule="nonzero"/><path fill="#f2b33d" d="M 228.652344 216.316406 C 228.222656 218.199219 227.390625 219.824219 226.09375 221.277344 C 224.515625 223.042969 222.683594 223.90625 220.488281 223.90625 C 217.71875 223.90625 215.53125 222.597656 213.792969 219.910156 C 211.90625 216.988281 210.949219 212.484375 210.949219 206.527344 C 210.949219 200.648438 211.847656 196.15625 213.617188 193.167969 C 215.242188 190.429688 217.328125 189.15625 220.183594 189.15625 C 224.082031 189.15625 226.742188 191.707031 228.316406 196.957031 L 228.703125 198.25 L 241.402344 198.25 L 240.964844 196.109375 C 239.855469 190.695312 237.605469 186.378906 234.269531 183.277344 C 230.5 179.769531 225.734375 177.992188 220.105469 177.992188 C 212.933594 177.992188 207.214844 180.753906 203.101562 186.207031 C 199.125 191.488281 197.109375 198.378906 197.109375 206.683594 C 197.109375 211.828125 197.957031 216.609375 199.632812 220.898438 C 201.339844 225.28125 203.820312 228.8125 207.011719 231.394531 C 210.296875 234.058594 214.589844 235.414062 219.765625 235.414062 C 225.890625 235.414062 230.929688 233.527344 234.742188 229.8125 C 238.242188 226.402344 240.402344 222.070312 241.164062 216.953125 L 241.46875 214.90625 L 228.972656 214.90625 Z M 228.652344 216.316406 " fill-opacity="1" fill-rule="nonzero"/><path fill="#f2b33d" d="M 219.765625 235.976562 C 214.449219 235.976562 210.03125 234.582031 206.636719 231.828125 C 203.367188 229.183594 200.828125 225.574219 199.085938 221.09375 C 197.386719 216.746094 196.527344 211.894531 196.527344 206.683594 C 196.527344 198.253906 198.578125 191.253906 202.632812 185.875 C 206.859375 180.273438 212.738281 177.425781 220.105469 177.425781 C 225.890625 177.425781 230.792969 179.257812 234.671875 182.867188 C 238.09375 186.050781 240.402344 190.46875 241.53125 196 L 242.109375 198.816406 L 228.265625 198.816406 L 227.753906 197.117188 C 226.265625 192.136719 223.789062 189.71875 220.183594 189.71875 C 217.523438 189.71875 215.65625 190.871094 214.121094 193.449219 C 212.402344 196.355469 211.53125 200.75 211.53125 206.527344 C 211.53125 212.382812 212.457031 216.78125 214.285156 219.609375 C 215.90625 222.121094 217.933594 223.34375 220.484375 223.34375 C 222.5 223.34375 224.191406 222.546875 225.648438 220.910156 C 226.875 219.53125 227.671875 217.988281 228.074219 216.191406 L 228.496094 214.34375 L 242.132812 214.34375 L 241.734375 217.035156 C 240.957031 222.277344 238.738281 226.710938 235.148438 230.214844 C 231.230469 234.039062 226.054688 235.976562 219.765625 235.976562 Z M 220.105469 178.550781 C 213.128906 178.550781 207.566406 181.238281 203.570312 186.539062 C 199.667969 191.722656 197.6875 198.496094 197.6875 206.679688 C 197.6875 211.753906 198.519531 216.472656 200.167969 220.695312 C 201.839844 224.988281 204.269531 228.441406 207.382812 230.960938 C 210.5625 233.542969 214.730469 234.847656 219.765625 234.847656 C 225.730469 234.847656 230.628906 233.019531 234.324219 229.414062 C 237.738281 226.089844 239.839844 221.867188 240.585938 216.871094 L 240.796875 215.464844 L 229.4375 215.464844 L 229.21875 216.433594 C 228.769531 218.414062 227.894531 220.117188 226.535156 221.640625 C 224.84375 223.542969 222.867188 224.464844 220.488281 224.464844 C 217.503906 224.464844 215.152344 223.074219 213.300781 220.203125 C 211.359375 217.195312 210.371094 212.589844 210.371094 206.523438 C 210.371094 200.550781 211.296875 195.957031 213.113281 192.886719 C 214.855469 189.953125 217.097656 188.585938 220.183594 188.585938 C 224.378906 188.585938 227.21875 191.269531 228.875 196.796875 L 229.140625 197.683594 L 240.691406 197.683594 L 240.390625 196.214844 C 239.308594 190.914062 237.113281 186.695312 233.867188 183.675781 C 230.214844 180.277344 225.582031 178.550781 220.105469 178.550781 Z M 220.105469 178.550781 " fill-opacity="1" fill-rule="nonzero"/><path fill="#f2b33d" d="M 274.90625 197.734375 L 289.078125 178.007812 L 274.796875 178.007812 L 257.160156 202.097656 L 257.160156 178.007812 L 243.792969 178.007812 L 243.792969 235.414062 L 257.160156 235.414062 L 257.160156 220.597656 L 265.191406 209.902344 L 275.71875 235.414062 L 290.511719 235.414062 Z M 274.90625 197.734375 " fill-opacity="1" fill-rule="nonzero"/><path fill="#f2b33d" d="M 291.371094 235.976562 L 275.324219 235.976562 L 265.042969 211.058594 L 257.746094 220.785156 L 257.746094 235.976562 L 243.214844 235.976562 L 243.214844 177.445312 L 257.746094 177.445312 L 257.746094 200.328125 L 274.5 177.445312 L 290.195312 177.445312 L 275.5625 197.804688 Z M 276.109375 234.851562 L 289.652344 234.851562 L 274.25 197.664062 L 287.96875 178.570312 L 275.101562 178.570312 L 256.578125 203.867188 L 256.578125 178.570312 L 244.375 178.570312 L 244.375 234.855469 L 256.578125 234.855469 L 256.578125 220.421875 L 265.34375 208.75 Z M 276.109375 234.851562 " fill-opacity="1" fill-rule="nonzero"/></svg>