<svg xmlns="http://www.w3.org/2000/svg" xmlns:xlink="http://www.w3.org/1999/xlink" width="500" zoomAndPan="magnify" viewBox="0 0 375 374.999991" height="500" preserveAspectRatio="xMidYMid meet" version="1.0"><defs><clipPath id="3daecd0556"><path d="M 0 79.6875 L 375 79.6875 L 375 295.6875 L 0 295.6875 Z M 0 79.6875 " clip-rule="nonzero"/></clipPath></defs><path fill="#f2b33d" d="M 330.515625 144.878906 L 330.515625 161.324219 L 321.566406 161.324219 L 321.566406 144.878906 L 273.609375 144.878906 L 232.296875 104.929688 L 173.640625 104.929688 L 173.640625 95.84375 L 221.058594 95.84375 C 225.507812 95.84375 229.109375 92.351562 229.109375 88.054688 C 229.109375 83.753906 225.507812 80.265625 221.058594 80.265625 L 110.113281 80.265625 C 105.664062 80.265625 102.0625 83.753906 102.0625 88.054688 C 102.0625 92.351562 105.664062 95.84375 110.113281 95.84375 L 157.53125 95.84375 L 157.53125 104.929688 L 105.980469 104.929688 L 63.21875 144.554688 L 25.707031 144.96875 L 25.707031 194.785156 L 16.757812 194.785156 L 16.757812 134.207031 C 16.757812 129.90625 13.152344 126.417969 8.707031 126.417969 C 4.261719 126.417969 0.65625 129.90625 0.65625 134.207031 L 0.65625 270.9375 C 0.65625 275.238281 4.261719 278.726562 8.707031 278.726562 C 13.152344 278.726562 16.757812 275.238281 16.757812 270.9375 L 16.757812 210.359375 L 25.707031 210.359375 L 25.707031 264.589844 L 63.832031 264.589844 L 94.996094 294.734375 L 289.199219 294.734375 L 321.703125 253.050781 L 333.203125 253.050781 L 333.203125 281.894531 L 374.359375 281.894531 L 374.359375 144.878906 Z M 358.253906 266.324219 L 349.304688 266.324219 L 349.304688 237.476562 L 313.679688 237.476562 L 281.171875 279.164062 L 101.664062 279.164062 L 70.496094 249.019531 L 41.8125 249.019531 L 41.8125 160.371094 L 69.765625 160.0625 L 112.449219 120.507812 L 225.625 120.507812 L 266.9375 160.460938 L 305.464844 160.460938 L 305.464844 176.902344 L 346.621094 176.902344 L 346.621094 160.460938 L 358.253906 160.460938 Z M 358.253906 266.324219 " fill-opacity="1" fill-rule="nonzero"/><g clip-path="url(#3daecd0556)"><path fill="#f2b33d" d="M 289.496094 295.3125 L 94.746094 295.3125 L 94.574219 295.144531 L 63.582031 265.167969 L 25.109375 265.167969 L 25.109375 210.9375 L 17.355469 210.9375 L 17.355469 270.9375 C 17.355469 275.550781 13.472656 279.304688 8.703125 279.304688 C 3.9375 279.304688 0.0585938 275.546875 0.0585938 270.9375 L 0.0585938 134.207031 C 0.0585938 129.589844 3.9375 125.839844 8.707031 125.839844 C 13.476562 125.839844 17.359375 129.589844 17.359375 134.207031 L 17.359375 194.207031 L 25.113281 194.207031 L 25.113281 144.398438 L 62.980469 143.976562 L 105.746094 104.351562 L 156.941406 104.351562 L 156.941406 96.421875 L 110.113281 96.421875 C 105.34375 96.421875 101.460938 92.667969 101.460938 88.054688 C 101.460938 83.4375 105.34375 79.6875 110.113281 79.6875 L 221.058594 79.6875 C 225.828125 79.6875 229.710938 83.4375 229.710938 88.054688 C 229.710938 92.667969 225.828125 96.421875 221.058594 96.421875 L 174.234375 96.421875 L 174.234375 104.351562 L 232.542969 104.351562 L 273.851562 144.300781 L 322.167969 144.300781 L 322.167969 160.746094 L 329.921875 160.746094 L 329.921875 144.300781 L 374.957031 144.300781 L 374.957031 282.472656 L 332.601562 282.472656 L 332.601562 253.628906 L 322 253.628906 Z M 95.242188 294.15625 L 288.898438 294.15625 L 321.40625 252.472656 L 333.796875 252.472656 L 333.796875 281.320312 L 373.761719 281.320312 L 373.761719 145.457031 L 331.109375 145.457031 L 331.109375 161.902344 L 320.972656 161.902344 L 320.972656 145.457031 L 273.359375 145.457031 L 232.046875 105.507812 L 173.039062 105.507812 L 173.039062 95.265625 L 221.058594 95.265625 C 225.167969 95.265625 228.515625 92.03125 228.515625 88.054688 C 228.515625 84.078125 225.167969 80.84375 221.058594 80.84375 L 110.113281 80.84375 C 106.003906 80.84375 102.65625 84.078125 102.65625 88.054688 C 102.65625 92.03125 106.003906 95.265625 110.113281 95.265625 L 158.132812 95.265625 L 158.132812 105.507812 L 106.222656 105.507812 L 63.464844 145.128906 L 26.308594 145.539062 L 26.308594 195.363281 L 16.164062 195.363281 L 16.164062 134.207031 C 16.164062 130.230469 12.816406 126.996094 8.707031 126.996094 C 4.597656 126.996094 1.25 130.230469 1.25 134.207031 L 1.25 270.9375 C 1.25 274.914062 4.597656 278.148438 8.707031 278.148438 C 12.816406 278.148438 16.164062 274.914062 16.164062 270.9375 L 16.164062 209.78125 L 26.304688 209.78125 L 26.304688 264.011719 L 64.078125 264.011719 L 64.25 264.179688 Z M 281.46875 279.734375 L 101.417969 279.734375 L 101.246094 279.566406 L 70.25 249.589844 L 41.214844 249.589844 L 41.214844 159.796875 L 69.523438 159.484375 L 112.210938 119.925781 L 225.875 119.925781 L 267.1875 159.878906 L 306.0625 159.878906 L 306.0625 176.320312 L 346.027344 176.320312 L 346.027344 159.878906 L 358.851562 159.878906 L 358.851562 266.898438 L 348.714844 266.898438 L 348.714844 238.050781 L 313.980469 238.050781 Z M 101.914062 278.578125 L 280.875 278.578125 L 313.382812 236.894531 L 349.898438 236.894531 L 349.898438 265.742188 L 357.652344 265.742188 L 357.652344 161.035156 L 347.214844 161.035156 L 347.214844 177.476562 L 304.859375 177.476562 L 304.859375 161.035156 L 266.683594 161.035156 L 225.371094 121.082031 L 112.691406 121.082031 L 70.007812 160.636719 L 42.40625 160.9375 L 42.40625 248.441406 L 70.742188 248.441406 L 70.914062 248.609375 Z M 101.914062 278.578125 " fill-opacity="1" fill-rule="nonzero"/></g><path fill="#f2b33d" d="M 89.191406 217.035156 C 88.753906 218.96875 87.898438 220.632812 86.570312 222.121094 C 84.953125 223.933594 83.078125 224.816406 80.824219 224.816406 C 77.988281 224.816406 75.742188 223.476562 73.964844 220.71875 C 72.03125 217.726562 71.054688 213.113281 71.054688 207.003906 C 71.054688 200.980469 71.972656 196.375 73.789062 193.3125 C 75.453125 190.503906 77.589844 189.199219 80.515625 189.199219 C 84.511719 189.199219 87.238281 191.816406 88.851562 197.195312 L 89.25 198.523438 L 102.261719 198.523438 L 101.816406 196.328125 C 100.679688 190.777344 98.375 186.351562 94.953125 183.175781 C 91.089844 179.582031 86.207031 177.757812 80.4375 177.757812 C 73.085938 177.757812 67.222656 180.589844 63.011719 186.179688 C 58.9375 191.589844 56.871094 198.652344 56.871094 207.164062 C 56.871094 212.4375 57.738281 217.339844 59.453125 221.734375 C 61.203125 226.226562 63.75 229.84375 67.015625 232.492188 C 70.390625 235.222656 74.785156 236.609375 80.089844 236.609375 C 86.367188 236.609375 91.53125 234.679688 95.4375 230.871094 C 99.023438 227.375 101.242188 222.9375 102.023438 217.691406 L 102.332031 215.589844 L 89.523438 215.589844 Z M 89.191406 217.035156 " fill-opacity="1" fill-rule="nonzero"/><path fill="#f2b33d" d="M 80.085938 237.1875 C 74.636719 237.1875 70.109375 235.757812 66.628906 232.9375 C 63.277344 230.222656 60.671875 226.523438 58.886719 221.933594 C 57.148438 217.476562 56.265625 212.503906 56.265625 207.164062 C 56.265625 198.523438 58.371094 191.347656 62.523438 185.839844 C 66.851562 180.09375 72.882812 177.179688 80.433594 177.179688 C 86.363281 177.179688 91.386719 179.054688 95.363281 182.757812 C 98.871094 186.015625 101.238281 190.542969 102.394531 196.214844 L 102.984375 199.101562 L 88.796875 199.101562 L 88.273438 197.359375 C 86.746094 192.257812 84.207031 189.777344 80.511719 189.777344 C 77.785156 189.777344 75.871094 190.957031 74.300781 193.601562 C 72.539062 196.578125 71.644531 201.085938 71.644531 207.003906 C 71.644531 213 72.59375 217.515625 74.464844 220.414062 C 76.125 222.988281 78.203125 224.238281 80.820312 224.238281 C 82.886719 224.238281 84.621094 223.421875 86.113281 221.746094 C 87.371094 220.332031 88.1875 218.75 88.605469 216.910156 L 89.035156 215.015625 L 103.015625 215.015625 L 102.605469 217.773438 C 101.804688 223.148438 99.535156 227.6875 95.855469 231.28125 C 91.835938 235.199219 86.53125 237.1875 80.085938 237.1875 Z M 80.4375 178.332031 C 73.289062 178.332031 67.585938 181.085938 63.488281 186.515625 C 59.492188 191.824219 57.460938 198.773438 57.460938 207.164062 C 57.460938 212.367188 58.316406 217.199219 60.003906 221.53125 C 61.71875 225.929688 64.207031 229.46875 67.398438 232.050781 C 70.65625 234.695312 74.925781 236.03125 80.089844 236.03125 C 86.203125 236.03125 91.222656 234.160156 95.011719 230.464844 C 98.507812 227.054688 100.664062 222.730469 101.425781 217.609375 L 101.640625 216.167969 L 90.003906 216.167969 L 89.777344 217.160156 C 89.316406 219.191406 88.421875 220.9375 87.027344 222.5 C 85.292969 224.449219 83.265625 225.394531 80.832031 225.394531 C 77.769531 225.394531 75.359375 223.964844 73.460938 221.023438 C 71.46875 217.9375 70.457031 213.21875 70.457031 207.003906 C 70.457031 200.882812 71.402344 196.175781 73.269531 193.027344 C 75.054688 190.023438 77.355469 188.621094 80.515625 188.621094 C 84.816406 188.621094 87.726562 191.371094 89.425781 197.035156 L 89.695312 197.945312 L 101.535156 197.945312 L 101.226562 196.441406 C 100.121094 191.007812 97.867188 186.683594 94.539062 183.589844 C 90.792969 180.101562 86.042969 178.332031 80.4375 178.332031 Z M 80.4375 178.332031 " fill-opacity="1" fill-rule="nonzero"/><path fill="#f2b33d" d="M 135.640625 200.445312 L 118.484375 200.445312 L 118.484375 177.773438 L 104.78125 177.773438 L 104.78125 236.609375 L 118.484375 236.609375 L 118.484375 212.644531 L 135.640625 212.644531 L 135.640625 236.609375 L 149.339844 236.609375 L 149.339844 177.773438 L 135.640625 177.773438 Z M 135.640625 200.445312 " fill-opacity="1" fill-rule="nonzero"/><path fill="#f2b33d" d="M 149.9375 237.1875 L 135.046875 237.1875 L 135.046875 213.222656 L 119.078125 213.222656 L 119.078125 237.1875 L 104.1875 237.1875 L 104.1875 177.199219 L 119.078125 177.199219 L 119.078125 199.867188 L 135.046875 199.867188 L 135.046875 177.199219 L 149.9375 177.199219 Z M 136.238281 236.03125 L 148.742188 236.03125 L 148.742188 178.351562 L 136.238281 178.351562 L 136.238281 201.023438 L 117.882812 201.023438 L 117.882812 178.351562 L 105.378906 178.351562 L 105.378906 236.039062 L 117.882812 236.039062 L 117.882812 212.074219 L 136.238281 212.074219 Z M 136.238281 236.03125 " fill-opacity="1" fill-rule="nonzero"/><path fill="#f2b33d" d="M 169.894531 212.605469 L 190.335938 212.605469 L 190.335938 200.929688 L 169.894531 200.929688 L 169.894531 189.65625 L 195.328125 189.65625 L 195.328125 177.773438 L 156.199219 177.773438 L 156.199219 236.609375 L 195.6875 236.609375 L 195.6875 224.367188 L 169.894531 224.367188 Z M 169.894531 212.605469 " fill-opacity="1" fill-rule="nonzero"/><path fill="#f2b33d" d="M 196.285156 237.1875 L 155.605469 237.1875 L 155.605469 177.199219 L 195.921875 177.199219 L 195.921875 190.230469 L 170.496094 190.230469 L 170.496094 200.351562 L 190.933594 200.351562 L 190.933594 213.179688 L 170.496094 213.179688 L 170.496094 223.785156 L 196.285156 223.785156 Z M 156.796875 236.03125 L 195.089844 236.03125 L 195.089844 224.941406 L 169.300781 224.941406 L 169.300781 212.03125 L 189.738281 212.03125 L 189.738281 201.507812 L 169.300781 201.507812 L 169.300781 189.078125 L 194.726562 189.078125 L 194.726562 178.351562 L 156.796875 178.351562 Z M 156.796875 236.03125 " fill-opacity="1" fill-rule="nonzero"/><path fill="#f2b33d" d="M 229.679688 217.035156 C 229.242188 218.96875 228.386719 220.632812 227.058594 222.121094 C 225.441406 223.933594 223.566406 224.816406 221.3125 224.816406 C 218.476562 224.816406 216.234375 223.476562 214.453125 220.71875 C 212.515625 217.726562 211.539062 213.113281 211.539062 207.003906 C 211.539062 200.980469 212.457031 196.375 214.273438 193.3125 C 215.9375 190.503906 218.074219 189.199219 221 189.199219 C 224.996094 189.199219 227.722656 191.816406 229.335938 197.195312 L 229.730469 198.523438 L 242.746094 198.523438 L 242.300781 196.328125 C 241.164062 190.777344 238.859375 186.351562 235.4375 183.175781 C 231.574219 179.582031 226.691406 177.757812 220.921875 177.757812 C 213.570312 177.757812 207.707031 180.589844 203.496094 186.179688 C 199.417969 191.59375 197.355469 198.652344 197.355469 207.164062 C 197.355469 212.4375 198.222656 217.339844 199.9375 221.734375 C 201.6875 226.226562 204.234375 229.84375 207.5 232.492188 C 210.871094 235.222656 215.269531 236.609375 220.574219 236.609375 C 226.851562 236.609375 232.011719 234.679688 235.921875 230.871094 C 239.507812 227.375 241.726562 222.9375 242.507812 217.691406 L 242.816406 215.589844 L 230.007812 215.589844 Z M 229.679688 217.035156 " fill-opacity="1" fill-rule="nonzero"/><path fill="#f2b33d" d="M 220.574219 237.1875 C 215.125 237.1875 210.597656 235.757812 207.117188 232.9375 C 203.765625 230.222656 201.160156 226.523438 199.375 221.933594 C 197.636719 217.476562 196.753906 212.503906 196.753906 207.164062 C 196.753906 198.527344 198.859375 191.351562 203.011719 185.839844 C 207.347656 180.09375 213.371094 177.179688 220.921875 177.179688 C 226.851562 177.179688 231.875 179.054688 235.851562 182.757812 C 239.359375 186.015625 241.726562 190.542969 242.882812 196.214844 L 243.472656 199.101562 L 229.285156 199.101562 L 228.761719 197.359375 C 227.234375 192.257812 224.695312 189.777344 221 189.777344 C 218.273438 189.777344 216.359375 190.957031 214.789062 193.601562 C 213.027344 196.578125 212.132812 201.085938 212.132812 207.003906 C 212.132812 213.003906 213.082031 217.515625 214.957031 220.414062 C 216.617188 222.988281 218.695312 224.238281 221.308594 224.238281 C 223.375 224.238281 225.109375 223.421875 226.601562 221.746094 C 227.859375 220.332031 228.675781 218.753906 229.089844 216.910156 L 229.519531 215.015625 L 243.496094 215.015625 L 243.089844 217.773438 C 242.289062 223.148438 240.019531 227.691406 236.339844 231.28125 C 232.324219 235.199219 227.019531 237.1875 220.574219 237.1875 Z M 220.921875 178.332031 C 213.773438 178.332031 208.070312 181.085938 203.972656 186.515625 C 199.976562 191.828125 197.945312 198.773438 197.945312 207.160156 C 197.945312 212.363281 198.796875 217.195312 200.488281 221.527344 C 202.203125 225.925781 204.691406 229.464844 207.882812 232.046875 C 211.140625 234.691406 215.410156 236.027344 220.574219 236.027344 C 226.6875 236.027344 231.707031 234.15625 235.492188 230.460938 C 238.992188 227.054688 241.148438 222.722656 241.910156 217.605469 L 242.125 216.164062 L 230.488281 216.164062 L 230.261719 217.15625 C 229.800781 219.1875 228.902344 220.933594 227.511719 222.496094 C 225.777344 224.445312 223.75 225.390625 221.3125 225.390625 C 218.257812 225.390625 215.847656 223.960938 213.949219 221.019531 C 211.957031 217.9375 210.941406 213.21875 210.941406 207 C 210.941406 200.878906 211.890625 196.171875 213.753906 193.023438 C 215.539062 190.019531 217.839844 188.617188 221 188.617188 C 225.300781 188.617188 228.210938 191.367188 229.910156 197.03125 L 230.179688 197.941406 L 242.019531 197.941406 L 241.710938 196.433594 C 240.605469 191 238.351562 186.679688 235.023438 183.585938 C 231.28125 180.101562 226.53125 178.332031 220.921875 178.332031 Z M 220.921875 178.332031 " fill-opacity="1" fill-rule="nonzero"/><path fill="#f2b33d" d="M 277.085938 197.992188 L 291.613281 177.773438 L 276.976562 177.773438 L 258.898438 202.464844 L 258.898438 177.773438 L 245.195312 177.773438 L 245.195312 236.609375 L 258.898438 236.609375 L 258.898438 221.425781 L 267.128906 210.464844 L 277.921875 236.609375 L 293.078125 236.609375 Z M 277.085938 197.992188 " fill-opacity="1" fill-rule="nonzero"/><path fill="#f2b33d" d="M 293.960938 237.1875 L 277.515625 237.1875 L 266.980469 211.648438 L 259.496094 221.617188 L 259.496094 237.1875 L 244.605469 237.1875 L 244.605469 177.199219 L 259.496094 177.199219 L 259.496094 200.652344 L 276.667969 177.199219 L 292.753906 177.199219 L 277.761719 198.066406 Z M 278.320312 236.03125 L 292.199219 236.03125 L 276.414062 197.917969 L 290.472656 178.351562 L 277.285156 178.351562 L 258.300781 204.28125 L 258.300781 178.351562 L 245.796875 178.351562 L 245.796875 236.039062 L 258.300781 236.039062 L 258.300781 221.246094 L 267.285156 209.28125 Z M 278.320312 236.03125 " fill-opacity="1" fill-rule="nonzero"/></svg>