<?xml version="1.0" standalone="no"?>
<!DOCTYPE svg PUBLIC "-//W3C//DTD SVG 20010904//EN"
 "http://www.w3.org/TR/2001/REC-SVG-20010904/DTD/svg10.dtd">
<svg version="1.0" xmlns="http://www.w3.org/2000/svg"
 width="768.000000pt" height="272.000000pt" viewBox="0 0 768.000000 272.000000"
 preserveAspectRatio="xMidYMid meet">

<g transform="translate(0.000000,272.000000) scale(0.100000,-0.100000)"
fill="#000000" stroke="none">
<path d="M0 1360 l0 -1360 3840 0 3840 0 0 1360 0 1360 -3840 0 -3840 0 0
-1360z m1517 834 c23 -21 35 -25 78 -23 119 7 180 -57 176 -183 l-2 -68 130 0
131 0 0 -35 0 -35 -165 0 -165 0 0 103 c0 96 -2 105 -23 126 -20 18 -34 21
-80 20 -41 -2 -62 3 -75 14 -10 10 -22 14 -25 10 -4 -3 -7 -1 -7 5 0 9 -49 12
-177 12 -167 0 -178 -1 -200 -22 -18 -17 -33 -21 -81 -19 -95 3 -100 -5 -101
-166 l-1 -83 -165 0 -165 0 0 35 0 35 126 0 125 0 -2 63 c-3 77 16 125 65 162
32 24 45 27 107 27 60 0 74 3 97 24 26 23 32 23 199 24 171 0 172 0 200 -26z
m2885 -115 c21 -22 36 -45 32 -50 -3 -5 -2 -9 3 -8 4 1 57 1 117 0 l109 -1 -6
-41 c-3 -22 -7 -42 -9 -44 -3 -3 -213 -7 -285 -6 -21 1 -23 6 -23 51 l0 50
-504 0 -505 -1 -3 -47 -3 -47 -149 -3 -149 -3 7 32 c3 17 6 38 6 45 0 11 22
14 100 14 88 0 100 2 100 17 0 9 14 32 32 50 l32 33 530 0 529 0 39 -41z
m2013 8 c11 -3 21 -6 23 -6 1 -1 5 -1 8 0 4 0 10 -4 13 -9 10 -16 139 -91 145
-85 3 4 6 -3 6 -13 0 -31 -20 -46 -37 -28 -8 8 -19 12 -24 9 -5 -4 -9 -2 -9 4
0 5 -30 27 -67 48 l-68 38 -305 3 c-168 1 -314 0 -326 -2 -40 -10 -44 -42 -44
-361 l0 -305 710 0 711 0 -2 109 c-1 60 -4 112 -8 117 -14 21 -216 177 -228
177 -6 0 -10 4 -7 9 3 4 -172 8 -389 8 -337 0 -396 2 -407 15 -7 8 -17 12 -23
8 -5 -3 -7 -1 -3 5 7 11 -47 55 -57 46 -3 -3 -8 0 -13 7 -5 8 -3 10 7 5 8 -4
6 -1 -5 8 -11 9 -16 22 -12 32 5 14 11 12 40 -13 80 -68 37 -62 461 -63 l386
0 54 -40 c30 -22 59 -40 65 -40 5 0 10 -3 10 -7 0 -12 71 -66 86 -66 7 0 11
-4 8 -8 -5 -9 37 -35 51 -30 5 1 7 -1 3 -5 -4 -4 -1 -12 7 -18 13 -9 15 -67
15 -385 1 -372 1 -374 -22 -407 -12 -18 -32 -35 -43 -38 -11 -3 -323 -6 -693
-6 -731 0 -703 -2 -735 54 -14 24 -28 1136 -14 1136 4 0 7 10 7 23 0 26 32 61
70 76 26 10 618 9 655 -2z m721 -223 c32 -25 60 -47 62 -49 2 -2 -1 -13 -8
-24 -13 -26 -30 -19 -102 41 -41 34 -46 43 -38 59 6 10 14 19 19 19 4 0 34
-21 67 -46z m-3806 -153 c0 -107 0 -109 28 -127 39 -26 172 -26 201 0 20 18
21 18 48 0 39 -26 158 -26 197 -1 25 17 29 17 52 3 28 -19 144 -34 144 -19 0
6 11 8 25 5 14 -2 25 0 25 4 0 5 8 14 19 21 15 10 23 8 42 -10 33 -31 155 -32
196 -1 27 21 28 24 31 128 l3 106 143 0 c135 0 144 -1 149 -20 3 -12 1 -18 -5
-14 -5 3 -9 -2 -8 -12 5 -43 3 -44 -94 -44 l-94 0 -1 -162 c-2 -154 -3 -164
-24 -184 -12 -12 -98 -46 -197 -79 -190 -62 -181 -59 -227 -70 -18 -4 -33 -11
-33 -16 0 -5 -7 -6 -15 -3 -9 4 -15 0 -15 -10 0 -25 -165 -23 -188 2 -18 19
-26 22 -177 67 -114 35 -254 82 -281 96 -37 19 -44 52 -44 210 l0 150 -109 -2
c-60 -1 -113 1 -118 4 -5 3 -7 24 -5 46 l4 41 164 0 164 0 0 -109z m-2402
-157 c3 -220 2 -218 88 -221 39 -1 60 4 76 17 21 17 24 17 41 2 23 -20 144
-31 132 -12 -6 9 -4 11 4 6 7 -5 20 -1 30 8 17 16 19 16 25 0 4 -9 12 -14 22
-10 8 3 12 2 9 -4 -4 -6 16 -10 51 -10 45 0 63 5 80 21 23 21 23 21 47 2 29
-22 115 -30 147 -13 21 11 21 17 18 206 -3 188 -2 195 17 200 11 3 85 3 165 2
l145 -3 0 -35 0 -35 -127 -3 -127 -3 -1 -292 c0 -161 -2 -302 -4 -314 -7 -36
-58 -157 -74 -175 -8 -10 -12 -18 -8 -18 21 0 -123 -112 -181 -140 -117 -58
-279 -53 -407 12 -71 36 -200 176 -213 231 -1 7 -9 39 -17 72 -12 46 -16 127
-16 342 l-1 282 -122 3 -122 3 -3 38 -3 38 163 -3 163 -3 3 -191z m2922 -494
c4 0 7 -8 5 -17 -3 -20 38 -108 55 -118 11 -7 13 -85 2 -100 -14 -20 -62 -45
-85 -45 -27 0 -87 54 -88 79 0 9 -2 24 -4 34 -2 9 0 17 5 17 14 0 61 90 54
102 -4 7 -3 8 4 4 8 -4 16 10 24 41 9 34 14 42 16 26 2 -13 7 -23 12 -23z"/>
<path d="M5739 1255 c0 -3 0 -33 -1 -67 l0 -63 34 2 c19 1 54 13 79 27 56 33
66 32 151 -5 82 -36 109 -35 193 7 62 30 97 28 147 -8 43 -30 146 -32 177 -4
39 35 111 38 170 8 23 -12 47 -20 52 -17 5 4 9 1 9 -4 0 -6 16 -11 35 -11 19
0 35 4 35 10 0 5 6 7 13 4 8 -3 33 7 58 20 56 33 66 32 149 -4 99 -43 100 -43
100 40 l0 70 -700 0 c-385 0 -700 -2 -701 -5z"/>
<path d="M5825 1108 c-22 -13 -42 -25 -45 -28 -3 -3 -14 -5 -25 -4 -18 1 -21
-5 -21 -53 l0 -54 44 6 c24 3 56 15 72 26 38 28 86 26 159 -6 70 -32 124 -30
184 5 53 32 85 31 147 -1 63 -33 119 -37 165 -13 70 37 102 44 144 29 22 -7
43 -10 47 -7 4 4 4 2 1 -5 -4 -7 5 -15 25 -22 38 -13 111 -15 104 -2 -4 5 2 8
11 6 10 -1 33 6 51 17 30 18 56 22 119 16 12 -1 19 -6 17 -10 -5 -7 4 -10 22
-7 4 0 10 -4 14 -11 4 -6 22 -13 41 -16 l35 -6 1 55 0 55 -34 5 c-20 4 -44 14
-55 24 -30 27 -148 25 -178 -2 -30 -27 -129 -28 -158 -2 -13 12 -43 21 -81 24
-52 5 -67 2 -110 -21 -62 -32 -102 -32 -165 -1 -59 28 -153 29 -180 2 -9 -9
-33 -19 -54 -22 -20 -4 -41 -8 -47 -9 -5 -2 -28 9 -50 23 -57 36 -145 40 -200
9z"/>
<path d="M5876 972 c-4 -6 -13 -9 -21 -6 -8 4 -17 0 -20 -8 -3 -8 -11 -15 -18
-16 -37 -5 -78 -15 -81 -21 -2 -3 2 -21 9 -39 l14 -32 679 0 c514 0 681 3 690
12 7 7 12 24 12 39 0 23 -5 27 -39 33 -22 3 -47 14 -57 23 -12 13 -34 18 -79
18 -57 0 -120 -19 -111 -34 3 -3 -20 -8 -51 -9 -42 -3 -62 2 -91 19 -53 33
-154 33 -199 1 -27 -19 -44 -23 -92 -21 -33 1 -58 5 -56 9 9 15 -51 35 -104
34 -42 0 -66 -6 -96 -25 -35 -22 -47 -24 -88 -18 -27 4 -57 15 -66 23 -21 19
-126 33 -135 18z"/>
</g>
</svg>
